<svg width="973" height="213" viewBox="0 0 973 213" fill="none" xmlns="http://www.w3.org/2000/svg">
<path d="M246.917 166.684H288.619C314.147 166.684 327.783 153.206 327.783 133.069C327.783 115.628 317.001 106.748 306.536 103.735C312.879 100.723 320.49 93.429 320.49 81.3784C320.49 65.8395 307.963 54.106 289.412 54.106H246.917V166.684ZM271.97 144.803V116.262H286.716C297.974 116.262 302.889 122.129 302.889 130.532C302.889 139.253 297.974 144.803 287.033 144.803H271.97ZM271.97 96.9174V75.9873H284.021C292.107 75.9873 296.388 79.6342 296.388 86.2938C296.388 92.4777 292.583 96.9174 284.496 96.9174H271.97Z" fill="url(#paint0_linear_3130_5966)"/>
<path d="M379.313 168.27C400.878 168.27 423.076 153.524 423.076 125.458C423.076 97.3931 400.878 82.6469 379.313 82.6469C357.749 82.6469 335.55 97.3931 335.55 125.458C335.55 153.524 357.749 168.27 379.313 168.27ZM359.81 125.458C359.81 112.773 368.69 104.845 379.313 104.845C389.937 104.845 398.816 112.773 398.816 125.458C398.816 138.143 389.937 146.071 379.313 146.071C368.69 146.071 359.81 138.143 359.81 125.458Z" fill="url(#paint1_linear_3130_5966)"/>
<path d="M473.768 168.27C495.333 168.27 517.531 153.524 517.531 125.458C517.531 97.3931 495.333 82.6469 473.768 82.6469C452.204 82.6469 430.006 97.3931 430.006 125.458C430.006 153.524 452.204 168.27 473.768 168.27ZM454.265 125.458C454.265 112.773 463.145 104.845 473.768 104.845C484.392 104.845 493.271 112.773 493.271 125.458C493.271 138.143 484.392 146.071 473.768 146.071C463.145 146.071 454.265 138.143 454.265 125.458Z" fill="url(#paint2_linear_3130_5966)"/>
<path d="M553.057 168.27C571.451 168.27 585.562 158.915 585.562 142.266C585.562 127.361 573.829 121.177 564.95 118.165L554.643 114.359C549.094 112.615 547.508 110.078 547.508 107.382C547.508 104.528 549.886 101.674 554.643 101.674C557.973 101.674 562.095 103.101 564.157 109.444L583.343 104.687C580.489 91.3677 569.231 82.6469 553.692 82.6469C537.519 82.6469 523.724 91.6849 523.724 107.065C523.724 117.372 529.591 126.251 543.227 131.167L554.326 135.289C559.717 137.033 561.303 139.57 561.303 142.266C561.303 146.864 557.18 149.084 552.74 149.084C544.971 149.084 542.117 143.534 540.848 139.57L521.345 144.803C523.882 160.5 536.409 168.27 553.057 168.27Z" fill="url(#paint3_linear_3130_5966)"/>
<path d="M629.574 167.635C635.282 167.635 642.259 166.526 645.43 163.354V144.644C642.418 145.596 639.564 145.913 637.661 145.913C630.208 145.913 627.83 141.473 627.83 137.35V103.735H645.113V84.2325H627.83V63.1439H603.253V84.2325H591.044V103.735H603.253V141.314C603.253 160.183 614.352 167.635 629.574 167.635Z" fill="url(#paint4_linear_3130_5966)"/>
<path d="M695.815 168.27C717.38 168.27 739.578 153.524 739.578 125.458C739.578 97.3931 717.38 82.6469 695.815 82.6469C674.251 82.6469 652.053 97.3931 652.053 125.458C652.053 153.524 674.251 168.27 695.815 168.27ZM676.312 125.458C676.312 112.773 685.192 104.845 695.815 104.845C706.439 104.845 715.318 112.773 715.318 125.458C715.318 138.143 706.439 146.071 695.815 146.071C685.192 146.071 676.312 138.143 676.312 125.458Z" fill="url(#paint5_linear_3130_5966)"/>
<path d="M748.923 196.811H773.5V157.329H773.976C775.245 160.342 783.807 168.27 798.394 168.27C817.105 168.27 837.717 154.158 837.717 125.458C837.717 96.7588 817.105 82.6469 798.394 82.6469C783.807 82.6469 775.245 90.5749 773.976 93.5876H773.5V84.2325H748.923V196.811ZM772.866 125.458C772.866 111.981 782.538 104.528 793.32 104.528C803.785 104.528 813.458 112.139 813.458 125.458C813.458 138.777 803.785 146.388 793.32 146.388C782.538 146.388 772.866 138.936 772.866 125.458Z" fill="url(#paint6_linear_3130_5966)"/>
<path d="M848.643 166.684H873.22V84.2325H848.643V166.684ZM848.643 75.5117H873.22V54.106H848.643V75.5117Z" fill="url(#paint7_linear_3130_5966)"/>
<path d="M923.488 168.27C938.075 168.27 946.638 160.342 947.906 157.329H948.382V166.684H972.959V84.2325H948.382V93.5876H947.906C946.638 90.5749 938.075 82.6469 923.488 82.6469C904.778 82.6469 884.165 96.7588 884.165 125.458C884.165 154.158 904.778 168.27 923.488 168.27ZM908.424 125.458C908.424 112.139 918.097 104.528 928.562 104.528C939.344 104.528 949.016 111.981 949.016 125.458C949.016 138.936 939.344 146.388 928.562 146.388C918.097 146.388 908.424 138.777 908.424 125.458Z" fill="url(#paint8_linear_3130_5966)"/>
<circle cx="106.5" cy="106.5" r="106.5" fill="#FFD956"/>
<path d="M86.7661 134.22L97.2639 144.718C175.892 98.5688 160.82 52.8197 160.82 52.8197C160.82 52.8197 115.032 37.7471 68.9217 116.376L79.4195 126.873" stroke="#171630" stroke-width="6" stroke-miterlimit="10" stroke-linecap="round" stroke-linejoin="round"/>
<path d="M68.5212 145.118C66.4913 143.088 66.4776 139.815 68.4908 137.802L108.025 98.2674C108.332 97.9607 108.736 97.7891 109.178 97.7716L116.235 95.6639C117.236 95.6296 118.048 96.4416 118.014 97.4426L115.906 104.5C115.889 104.942 115.717 105.346 115.41 105.653L75.876 145.187C73.8242 147.162 70.5512 147.148 68.5212 145.118Z" stroke="#171630" stroke-width="6" stroke-miterlimit="10" stroke-linecap="round" stroke-linejoin="round"/>
<path d="M108.172 68.6963L88.4154 67.8826C88.4154 67.8826 60.2172 78.7971 54.9427 106.768C54.9427 106.768 67.3853 94.1712 78.7532 100.938" stroke="#171630" stroke-width="6" stroke-miterlimit="10" stroke-linecap="round" stroke-linejoin="round"/>
<path d="M144.944 105.467L145.757 125.224C145.757 125.224 134.843 153.422 106.871 158.697C106.871 158.697 119.469 146.254 112.702 134.886" stroke="#171630" stroke-width="6" stroke-miterlimit="10" stroke-linecap="round" stroke-linejoin="round"/>
<path d="M123.889 88.8229C128.833 93.7665 136.815 93.7997 141.717 88.897C146.62 83.9944 146.587 76.0124 141.643 71.0688C136.699 66.1252 128.718 66.0921 123.815 70.9947C118.912 75.8974 118.945 83.8793 123.889 88.8229Z" stroke="#171630" stroke-width="6" stroke-miterlimit="10" stroke-linecap="round" stroke-linejoin="round"/>
<path d="M72.8657 120.32L66.2703 126.915L72.8241 133.469" stroke="#171630" stroke-width="6" stroke-miterlimit="10" stroke-linecap="round" stroke-linejoin="round"/>
<path d="M93.3205 140.774L86.725 147.369L80.1711 140.815" stroke="#171630" stroke-width="6" stroke-miterlimit="10" stroke-linecap="round" stroke-linejoin="round"/>
<path d="M62.3545 134.427L51.0425 145.739" stroke="#171630" stroke-width="6" stroke-miterlimit="10" stroke-linecap="round" stroke-linejoin="round"/>
<path d="M57.8984 150.869L50.5169 158.251" stroke="#171630" stroke-width="6" stroke-miterlimit="10" stroke-linecap="round" stroke-linejoin="round"/>
<path d="M79.4644 151.536L68.1524 162.848" stroke="#171630" stroke-width="6" stroke-miterlimit="10" stroke-linecap="round" stroke-linejoin="round"/>
<path d="M64.0078 156.979L56.6262 164.36" stroke="#171630" stroke-width="6" stroke-miterlimit="10" stroke-linecap="round" stroke-linejoin="round"/>
<defs>
<linearGradient id="paint0_linear_3130_5966" x1="151.064" y1="75.7665" x2="801.528" y2="471.372" gradientUnits="userSpaceOnUse">
<stop stop-color="#FFD956"/>
<stop offset="1" stop-color="#FFFEE6"/>
</linearGradient>
<linearGradient id="paint1_linear_3130_5966" x1="151.064" y1="75.7665" x2="801.528" y2="471.372" gradientUnits="userSpaceOnUse">
<stop stop-color="#FFD956"/>
<stop offset="1" stop-color="#FFFEE6"/>
</linearGradient>
<linearGradient id="paint2_linear_3130_5966" x1="151.064" y1="75.7665" x2="801.528" y2="471.372" gradientUnits="userSpaceOnUse">
<stop stop-color="#FFD956"/>
<stop offset="1" stop-color="#FFFEE6"/>
</linearGradient>
<linearGradient id="paint3_linear_3130_5966" x1="151.064" y1="75.7665" x2="801.528" y2="471.372" gradientUnits="userSpaceOnUse">
<stop stop-color="#FFD956"/>
<stop offset="1" stop-color="#FFFEE6"/>
</linearGradient>
<linearGradient id="paint4_linear_3130_5966" x1="151.064" y1="75.7665" x2="801.528" y2="471.372" gradientUnits="userSpaceOnUse">
<stop stop-color="#FFD956"/>
<stop offset="1" stop-color="#FFFEE6"/>
</linearGradient>
<linearGradient id="paint5_linear_3130_5966" x1="151.064" y1="75.7665" x2="801.528" y2="471.372" gradientUnits="userSpaceOnUse">
<stop stop-color="#FFD956"/>
<stop offset="1" stop-color="#FFFEE6"/>
</linearGradient>
<linearGradient id="paint6_linear_3130_5966" x1="151.064" y1="75.7665" x2="801.528" y2="471.372" gradientUnits="userSpaceOnUse">
<stop stop-color="#FFD956"/>
<stop offset="1" stop-color="#FFFEE6"/>
</linearGradient>
<linearGradient id="paint7_linear_3130_5966" x1="151.064" y1="75.7665" x2="801.528" y2="471.372" gradientUnits="userSpaceOnUse">
<stop stop-color="#FFD956"/>
<stop offset="1" stop-color="#FFFEE6"/>
</linearGradient>
<linearGradient id="paint8_linear_3130_5966" x1="151.064" y1="75.7665" x2="801.528" y2="471.372" gradientUnits="userSpaceOnUse">
<stop stop-color="#FFD956"/>
<stop offset="1" stop-color="#FFFEE6"/>
</linearGradient>
</defs>
</svg>
